<svg xmlns="http://www.w3.org/2000/svg" shape-rendering="geometricPrecision" text-rendering="geometricPrecision" image-rendering="optimizeQuality" fill-rule="evenodd" clip-rule="evenodd" viewBox="0 0 468 512.058"><path fill="#000" d="M46.132 303.748h-9.769c-6.581 0-11.968 5.386-11.968 11.967v147.58c0 6.581 5.385 11.969 11.968 11.969h9.769V303.748zm375.735 0h9.769c6.581 0 11.968 5.386 11.968 11.967v147.58c0 6.581-5.385 11.969-11.968 11.969h-9.769V303.748z"/><path fill="#4D4D4D" d="M24.395 424.993V345.53c-5.129-13.235-7.014-30.792-7.388-50.368H0c3.816 66.967 9.486 112.946 24.395 129.831zm419.209 0V345.53c5.129-13.235 7.014-30.792 7.388-50.368H468c-3.817 66.967-9.487 112.946-24.396 129.831z"/><path fill="#1A1A1A" d="M356.407 275.555h-12.15c-11.229 0-20.416 9.189-20.416 20.418v187.065c0 11.23 9.187 20.417 20.416 20.417h12.15v-227.9zm-244.813 0h12.148c11.229 0 20.418 9.189 20.418 20.418v187.065c0 11.23-9.189 20.417-20.418 20.417h-12.148v-227.9z"/><path fill="#4D4D4D" d="M367.015 266.953h17.722c17.996 0 37.13 14.735 37.13 32.731v179.644c0 17.995-19.127 32.73-37.13 32.73h-17.722c-5.835 0-10.608-4.774-10.608-10.608V277.561c0-5.835 4.784-10.608 10.608-10.608zm-266.03 0H83.262c-17.996 0-37.13 14.735-37.13 32.731v179.644c0 17.995 19.128 32.73 37.13 32.73h17.723c5.834 0 10.609-4.774 10.609-10.608V277.561c0-5.835-4.786-10.608-10.609-10.608z"/><path fill="#1A1A1A" d="M233.82 51.672C88.799 51.776 4.843 156.701 13.482 295.162h-9.35C-13.024 140.802 63.015-.048 234.071 0c170.995.049 246.946 140.862 229.796 295.162h-9.35c8.656-138.612-75.545-243.593-220.697-243.49z"/><path fill="#666" fill-rule="nonzero" d="M381.743 266.953v245.105h-8.84V266.953h8.84zm-286.646 0v245.105h-8.841V266.953h8.841z"/></svg>